<?xml version="1.0" encoding="UTF-8" standalone="no"?>
<!-- Created with Inkscape (http://www.inkscape.org/) -->

<svg
   xmlns:dc="http://purl.org/dc/elements/1.1/"
   xmlns:cc="http://creativecommons.org/ns#"
   xmlns:rdf="http://www.w3.org/1999/02/22-rdf-syntax-ns#"
   xmlns:svg="http://www.w3.org/2000/svg"
   xmlns="http://www.w3.org/2000/svg"
   xmlns:sodipodi="http://sodipodi.sourceforge.net/DTD/sodipodi-0.dtd"
   xmlns:inkscape="http://www.inkscape.org/namespaces/inkscape"
   version="1.1"
   id="svg2"
   xml:space="preserve"
   width="3198.6667"
   height="3184"
   viewBox="0 0 3198.6667 3184"
   sodipodi:docname="vecteezy_law-firm-logo-template-vector-icon-in-white-background_.svg"
   inkscape:export-filename="/home/jojoangie/Downloads/vecteezy_law-firm-logo-template-vector-icon-in-white-background__554/vecteezy_law-firm-logo-template-vector-icon-in-white-background_.png"
   inkscape:export-xdpi="96"
   inkscape:export-ydpi="96"
   inkscape:version="0.92.5 (2060ec1f9f, 2020-04-08)"><metadata
     id="metadata8"><rdf:RDF><cc:Work
         rdf:about=""><dc:format>image/svg+xml</dc:format><dc:type
           rdf:resource="http://purl.org/dc/dcmitype/StillImage" /><dc:title></dc:title></cc:Work></rdf:RDF></metadata><defs
     id="defs6" /><sodipodi:namedview
     pagecolor="#ffffff"
     bordercolor="#666666"
     borderopacity="1"
     objecttolerance="10"
     gridtolerance="10"
     guidetolerance="10"
     inkscape:pageopacity="0"
     inkscape:pageshadow="2"
     inkscape:window-width="1366"
     inkscape:window-height="693"
     id="namedview4"
     showgrid="false"
     inkscape:zoom="0.074120603"
     inkscape:cx="1599.3334"
     inkscape:cy="1592"
     inkscape:window-x="0"
     inkscape:window-y="146"
     inkscape:window-maximized="1"
     inkscape:current-layer="g12" /><g
     id="g10"
     inkscape:groupmode="layer"
     inkscape:label="ink_ext_XXXXXX"
     transform="matrix(1.3333333,0,0,-1.3333333,0,3184)"><g
       id="g12"
       transform="scale(0.1)"><g
         id="g14"
         transform="scale(1.47129)" /><path
         d="m 13209,15818.3 c 0,-69.8 -57.1,-126.9 -126.8,-126.9 h -2200.4 c -69.7,0 -126.8,57.1 -126.8,126.9 0,69.8 57.1,126.9 126.8,126.9 h 2200.4 c 69.7,0 126.8,-57.1 126.8,-126.9"
         style="fill:#b8882b;fill-opacity:1;fill-rule:evenodd;stroke:none"
         id="path18"
         inkscape:connector-curvature="0" /><path
         d="m 12489.5,14483.9 c 69.8,0 126.9,-57.1 126.9,-126.8 v -3215.4 c 0,-69.7 -57.1,-126.8 -126.9,-126.8 -69.8,0 -126.9,57.1 -126.9,126.8 v 3215.4 c 0,69.7 57.1,126.8 126.9,126.8"
         style="fill:#b8882b;fill-opacity:1;fill-rule:evenodd;stroke:none"
         id="path20"
         inkscape:connector-curvature="0" /><path
         d="m 12997,14483.9 c 69.8,0 126.9,-57.1 126.9,-126.8 v -2175 c 0,-69.7 -57.1,-126.8 -126.9,-126.8 -69.8,0 -126.9,57.1 -126.9,126.8 v 2175 c 0,69.7 57.1,126.8 126.9,126.8"
         style="fill:#b8882b;fill-opacity:1;fill-rule:evenodd;stroke:none"
         id="path22"
         inkscape:connector-curvature="0" /><path
         d="m 10755,14803.3 c 0,-69.8 57.1,-126.9 126.8,-126.9 h 2200.4 c 69.7,0 126.8,57.1 126.8,126.9 0,69.8 -57.1,126.9 -126.8,126.9 h -2200.4 c -69.7,0 -126.8,-57.1 -126.8,-126.9"
         style="fill:#b8882b;fill-opacity:1;fill-rule:evenodd;stroke:none"
         id="path24"
         inkscape:connector-curvature="0" /><path
         d="m 11474.5,14483.9 c -69.8,0 -126.9,-57.1 -126.9,-126.8 v -3215.4 c 0,-69.7 57.1,-126.8 126.9,-126.8 69.8,0 126.9,57.1 126.9,126.8 v 3215.4 c 0,69.7 -57.1,126.8 -126.9,126.8"
         style="fill:#b8882b;fill-opacity:1;fill-rule:evenodd;stroke:none"
         id="path26"
         inkscape:connector-curvature="0" /><path
         d="m 10967,14483.9 c -69.8,0 -126.8,-57.1 -126.8,-126.8 v -2175 c 0,-69.7 57,-126.8 126.8,-126.8 69.8,0 126.9,57.1 126.9,126.8 v 2175 c 0,69.7 -57.1,126.8 -126.9,126.8"
         style="fill:#b8882b;fill-opacity:1;fill-rule:evenodd;stroke:none"
         id="path28"
         inkscape:connector-curvature="0" /><path
         d="M 13083.6,15437.7 H 9760.86 c -158.36,0 -304.34,-55.3 -419.57,-147.5 -19.61,-15.7 -38.32,-32.5 -56.06,-50.2 -121.99,-122 -197.69,-290.4 -197.69,-475.7 0,-185.3 75.7,-353.7 197.69,-475.6 121.96,-122 290.32,-197.7 475.63,-197.7 185.31,0 353.74,75.7 475.64,197.7 17.8,17.7 34.5,36.4 50.2,56 92.2,115.2 147.5,261.2 147.5,419.6 v 80 c 0,69.8 -57.1,126.9 -126.9,126.9 -69.7,0 -126.8,-57.1 -126.8,-126.9 v -80 c 0,-115.2 -47.3,-220.1 -123.4,-296.2 -76.08,-76.1 -180.97,-123.4 -296.2,-123.4 h -0.04 c -115.24,0 -220.12,47.3 -296.21,123.4 -76.13,76.1 -123.36,181 -123.36,296.2 0,115.3 47.23,220.1 123.36,296.3 76.09,76.1 180.97,123.3 296.21,123.3 h 4442.24 c 115.3,0 220.2,-47.2 296.3,-123.3 76.1,-76.2 123.3,-181 123.3,-296.3 0,-115.2 -47.2,-220.1 -123.3,-296.2 -76.1,-76.1 -181,-123.4 -296.3,-123.4 -115.2,0 -220.1,47.3 -296.2,123.4 -76.1,76.1 -123.4,181 -123.4,296.2 v 80 c 0,69.8 -57,126.9 -126.8,126.9 -69.8,0 -126.9,-57.1 -126.9,-126.9 v -80 c 0,-158.4 55.3,-304.4 147.5,-419.6 15.7,-19.6 32.4,-38.3 50.2,-56 122,-122 290.3,-197.7 475.6,-197.7 185.4,0 353.7,75.7 475.7,197.7 122,121.9 197.7,290.3 197.7,475.6 0,185.3 -75.7,353.7 -197.7,475.7 -17.7,17.7 -36.5,34.5 -56.1,50.2 -115.2,92.2 -261.2,147.5 -419.6,147.5 h -1119.5"
         style="fill:#b8882b;fill-opacity:1;fill-rule:evenodd;stroke:none"
         id="path30"
         inkscape:connector-curvature="0" /><path
         d="m 11982,14483.9 c 69.8,0 126.9,-57.1 126.9,-126.8 v -3849.8 c 0,-69.7 -57.1,-126.8 -126.9,-126.8 -69.8,0 -126.9,57.1 -126.9,126.8 v 3849.8 c 0,69.7 57.1,126.8 126.9,126.8"
         style="fill:#b8882b;fill-opacity:1;fill-rule:evenodd;stroke:none"
         id="path32"
         inkscape:connector-curvature="0" /><g
         id="g34"
         transform="scale(10)" /><text
         y="-6793.3008"
         x="7582.0293"
         transform="scale(0.92531077,-1.080718)"
         style="font-variant:normal;font-weight:bold;font-size:3452.31591797px;font-family:Norasi;-inkscape-font-specification:Norasi-Bold;writing-mode:lr-tb;fill:#111122;fill-opacity:1;fill-rule:nonzero;stroke:none;stroke-width:9.25310802;"
         id="text38"><tspan
           style="stroke-width:9.25310802;fill:#111122;fill-opacity:1;"
           x="7582.0293 9991.7432 11907.778 13630.485 15546.521 17044.826"
           y="-6793.3008"
           sodipodi:role="line"
           id="tspan36">Abonet</tspan></text>
</g></g></svg>