<svg xmlns="http://www.w3.org/2000/svg" xmlns:svg="http://www.w3.org/2000/svg" id="svg2" width="3198.667" height="3184" version="1.1" viewBox="0 0 3198.667 3184" xml:space="preserve"><metadata id="metadata8"/><g id="g10" transform="matrix(1.3333333,0,0,-1.3333333,0,3184)"><g id="g12" transform="scale(0.1)"><path style="fill:#b8882b;fill-opacity:1;fill-rule:evenodd;stroke:none" id="path18" d="m 13209,15818.3 c 0,-69.8 -57.1,-126.9 -126.8,-126.9 h -2200.4 c -69.7,0 -126.8,57.1 -126.8,126.9 0,69.8 57.1,126.9 126.8,126.9 h 2200.4 c 69.7,0 126.8,-57.1 126.8,-126.9"/><path style="fill:#b8882b;fill-opacity:1;fill-rule:evenodd;stroke:none" id="path20" d="m 12489.5,14483.9 c 69.8,0 126.9,-57.1 126.9,-126.8 v -3215.4 c 0,-69.7 -57.1,-126.8 -126.9,-126.8 -69.8,0 -126.9,57.1 -126.9,126.8 v 3215.4 c 0,69.7 57.1,126.8 126.9,126.8"/><path style="fill:#b8882b;fill-opacity:1;fill-rule:evenodd;stroke:none" id="path22" d="m 12997,14483.9 c 69.8,0 126.9,-57.1 126.9,-126.8 v -2175 c 0,-69.7 -57.1,-126.8 -126.9,-126.8 -69.8,0 -126.9,57.1 -126.9,126.8 v 2175 c 0,69.7 57.1,126.8 126.9,126.8"/><path style="fill:#b8882b;fill-opacity:1;fill-rule:evenodd;stroke:none" id="path24" d="m 10755,14803.3 c 0,-69.8 57.1,-126.9 126.8,-126.9 h 2200.4 c 69.7,0 126.8,57.1 126.8,126.9 0,69.8 -57.1,126.9 -126.8,126.9 h -2200.4 c -69.7,0 -126.8,-57.1 -126.8,-126.9"/><path style="fill:#b8882b;fill-opacity:1;fill-rule:evenodd;stroke:none" id="path26" d="m 11474.5,14483.9 c -69.8,0 -126.9,-57.1 -126.9,-126.8 v -3215.4 c 0,-69.7 57.1,-126.8 126.9,-126.8 69.8,0 126.9,57.1 126.9,126.8 v 3215.4 c 0,69.7 -57.1,126.8 -126.9,126.8"/><path style="fill:#b8882b;fill-opacity:1;fill-rule:evenodd;stroke:none" id="path28" d="m 10967,14483.9 c -69.8,0 -126.8,-57.1 -126.8,-126.8 v -2175 c 0,-69.7 57,-126.8 126.8,-126.8 69.8,0 126.9,57.1 126.9,126.8 v 2175 c 0,69.7 -57.1,126.8 -126.9,126.8"/><path style="fill:#b8882b;fill-opacity:1;fill-rule:evenodd;stroke:none" id="path30" d="M 13083.6,15437.7 H 9760.86 c -158.36,0 -304.34,-55.3 -419.57,-147.5 -19.61,-15.7 -38.32,-32.5 -56.06,-50.2 -121.99,-122 -197.69,-290.4 -197.69,-475.7 0,-185.3 75.7,-353.7 197.69,-475.6 121.96,-122 290.32,-197.7 475.63,-197.7 185.31,0 353.74,75.7 475.64,197.7 17.8,17.7 34.5,36.4 50.2,56 92.2,115.2 147.5,261.2 147.5,419.6 v 80 c 0,69.8 -57.1,126.9 -126.9,126.9 -69.7,0 -126.8,-57.1 -126.8,-126.9 v -80 c 0,-115.2 -47.3,-220.1 -123.4,-296.2 -76.08,-76.1 -180.97,-123.4 -296.2,-123.4 h -0.04 c -115.24,0 -220.12,47.3 -296.21,123.4 -76.13,76.1 -123.36,181 -123.36,296.2 0,115.3 47.23,220.1 123.36,296.3 76.09,76.1 180.97,123.3 296.21,123.3 h 4442.24 c 115.3,0 220.2,-47.2 296.3,-123.3 76.1,-76.2 123.3,-181 123.3,-296.3 0,-115.2 -47.2,-220.1 -123.3,-296.2 -76.1,-76.1 -181,-123.4 -296.3,-123.4 -115.2,0 -220.1,47.3 -296.2,123.4 -76.1,76.1 -123.4,181 -123.4,296.2 v 80 c 0,69.8 -57,126.9 -126.8,126.9 -69.8,0 -126.9,-57.1 -126.9,-126.9 v -80 c 0,-158.4 55.3,-304.4 147.5,-419.6 15.7,-19.6 32.4,-38.3 50.2,-56 122,-122 290.3,-197.7 475.6,-197.7 185.4,0 353.7,75.7 475.7,197.7 122,121.9 197.7,290.3 197.7,475.6 0,185.3 -75.7,353.7 -197.7,475.7 -17.7,17.7 -36.5,34.5 -56.1,50.2 -115.2,92.2 -261.2,147.5 -419.6,147.5 h -1119.5"/><path style="fill:#b8882b;fill-opacity:1;fill-rule:evenodd;stroke:none" id="path32" d="m 11982,14483.9 c 69.8,0 126.9,-57.1 126.9,-126.8 v -3849.8 c 0,-69.7 -57.1,-126.8 -126.9,-126.8 -69.8,0 -126.9,57.1 -126.9,126.8 v 3849.8 c 0,69.7 57.1,126.8 126.9,126.8"/><text style="font-variant:normal;font-weight:700;font-size:3452.31591797px;font-family:Norasi;-inkscape-font-specification:Norasi-Bold;writing-mode:lr-tb;fill:#112;fill-opacity:1;fill-rule:nonzero;stroke:none;stroke-width:9.25310802" id="text38" x="7582.029" y="-6793.301" transform="scale(0.92531077,-1.080718)"><tspan style="stroke-width:9.25310802;fill:#112;fill-opacity:1" id="tspan36" x="7582.029 9991.743 11907.778 13630.485 15546.521 17044.826" y="-6793.301">Abonet</tspan></text></g></g></svg>