<?xml version="1.0" encoding="utf-8"?>
<!-- Generator: Adobe Illustrator 14.0.0, SVG Export Plug-In . SVG Version: 6.00 Build 43363)  -->
<!DOCTYPE svg PUBLIC "-//W3C//DTD SVG 1.1//EN" "http://www.w3.org/Graphics/SVG/1.1/DTD/svg11.dtd">
<svg version="1.1" id="Layer_1" xmlns="http://www.w3.org/2000/svg" xmlns:xlink="http://www.w3.org/1999/xlink" x="0px" y="0px"
	  viewBox="0 0 40 40" enable-background="new 0 0 40 40" xml:space="preserve">
<path d="M35.667,18.241L20.476,7.193C20.338,7.091,20.173,7.038,20,7.038s-0.337,0.054-0.477,0.155l-6.715,4.884v-1.85
	c0-0.53-0.371-0.961-0.828-0.961H8.334c-0.457,0-0.828,0.432-0.828,0.961v5.706l-3.173,2.308c-0.361,0.263-0.441,0.771-0.178,1.132
	c0.151,0.208,0.397,0.332,0.655,0.332c0.172,0,0.336-0.053,0.477-0.154l2.321-1.688v14.29c0,0.447,0.363,0.811,0.81,0.811h8.178
	c0.447,0,0.81-0.363,0.81-0.811v-9.715h5.191v9.715c0,0.447,0.362,0.811,0.809,0.811h8.178c0.447,0,0.811-0.363,0.811-0.811v-14.29
	l2.322,1.688c0.137,0.101,0.301,0.154,0.475,0.154c0.259,0,0.504-0.124,0.656-0.332C36.107,19.011,36.027,18.504,35.667,18.241z
	 M9.162,11.188h1.991v2.092l-1.991,1.448V11.188z M30.772,31.342h-6.558v-9.714c0-0.446-0.363-0.81-0.811-0.81h-6.809
	c-0.447,0-0.81,0.364-0.81,0.81v9.714H9.228V16.684L20,8.85l10.772,7.834V31.342z"/>
</svg>
